PathFileType	4	(X/Y/Z)	G:\Shared drives\HPL_Drive\Pi-Spi Study\20230118_AMCsubject1\Trimmed_left_flex_18001_rotated.trc
DataRate	CameraRate	NumFrames	NumMarkers	Units	OrigDataRate	OrigDataStartFrame	OrigNumFrames
200.00	200.00	       8	35	mm	200.00	51	       200
Frame#	Time	C7			Sternum			r_AMC1			r_AMC2			r_AMC3			l_AMC1			l_AMC2			l_AMC3			PX			T8			r_humerous			r_elbow_medial			r_elbow_lateral			r_forearm			r_wrist_radius			r_wrist_ulna			r_MCP_1			r_MCP_3			l_humerous			l_elbow_medial			l_elbow_lateral			l_forearm			l_wrist_radius			l_wrist_ulna			l_MCP_1			l_MCP_3			r_ASIS			r_PSIS			l_ASIS			l_PSIS			r_IC			l_IC			TS			AI			AA			
		X1	Y1	Z1	X2	Y2	Z2	X3	Y3	Z3	X4	Y4	Z4	X5	Y5	Z5	X6	Y6	Z6	X7	Y7	Z7	X8	Y8	Z8	X9	Y9	Z9	X10	Y10	Z10	X11	Y11	Z11	X12	Y12	Z12	X13	Y13	Z13	X14	Y14	Z14	X15	Y15	Z15	X16	Y16	Z16	X17	Y17	Z17	X18	Y18	Z18	X19	Y19	Z19	X20	Y20	Z20	X21	Y21	Z21	X22	Y22	Z22	X23	Y23	Z23	X24	Y24	Z24	X25	Y25	Z25	X26	Y26	Z26	X27	Y27	Z27	X28	Y28	Z28	X29	Y29	Z29	X30	Y30	Z30	X31	Y31	Z31	X32	Y32	Z32	X33	Y33	Z33	X34	Y34	Z34	X35	Y35	Z35	

51	0.25	195.8664	1368.4103	-235.3902	332.26	1325.3573	-205.2291	178.4774	1318.0354	-78.5156	208.5247	1321.7043	-38.0268	229.3151	1357.9962	-56.5425	202.7352	1341.8353	-359.4301	237.5765	1376.7126	-373.2843	225.6737	1397.532	-326.3215	406.3311	1134.8215	-199.4407	175.1732	1189.8981	-240.3113	292.5584	1141.9108	-12.7621	232.3929	997.2365	-44.1699	243.6653	1008.371	20.8362	301.368	855.4777	47.2327	353.4907	793.8467	30.662	305.6834	785.2563	47.3456	377.7262	712.4216	45.349	328.721	707.4787	58.5172	316.4085	1476.4918	-352.6009	408.0469	1564.9594	-430.4996	362.4499	1590.3785	-438.5492	385.0276	1749.6548	-439.557	395.5158	1822.7673	-422.149	431.3961	1818.2151	-446.0835	399.3849	1897.4084	-429.8345	438.4125	1894.3639	-448.3238	372.7719	907.2081	-78.8552	185.5724	928.6731	-164.8977	375.2376	894.5836	-337.2614	187.2843	922.5308	-267.1418	291.5988	970.8099	-52.9701	290.5967	941.1903	-377.1855	139.4019	1291.0515	-334.9849	167.5311	1199.5735	-367.6664	198.4331	1353.3123	-443.6675
52	0.255	195.8264	1368.3972	-235.3844	332.243	1325.3682	-205.2371	178.5054	1318.0571	-78.4725	208.5709	1321.6794	-37.9914	229.3695	1357.9387	-56.5183	202.7708	1341.7965	-359.4496	237.5625	1376.728	-373.2708	225.6847	1397.5328	-326.3361	406.344	1134.8058	-199.3928	175.1755	1189.8972	-240.2543	292.5823	1141.9307	-12.7779	232.3934	997.228	-44.191	243.6636	1008.3569	20.8445	301.3914	855.4616	47.2222	353.4969	793.8668	30.6219	305.6892	785.3637	47.3291	377.7381	712.4241	45.3137	328.7775	707.4638	58.3924	316.2528	1476.5924	-352.6334	408.0527	1564.9933	-430.496	362.4667	1590.3623	-438.5545	385.0342	1749.6609	-439.5348	395.5569	1822.765	-422.1358	431.4455	1818.2319	-446.0542	399.4157	1897.4231	-429.824	438.4321	1894.3208	-448.3247	372.8426	907.2115	-78.8554	185.5749	928.672	-164.8958	375.2299	894.5731	-337.2559	187.2854	922.5134	-267.114	291.565	970.9632	-52.913	290.5981	941.0994	-377.1343	139.3841	1291.0602	-334.968	167.5123	1199.6373	-367.6341	198.4129	1353.3081	-443.6631
53	0.26	195.8298	1368.4059	-235.3878	332.2623	1325.3774	-205.2103	178.4819	1318.0592	-78.4738	208.6119	1321.7007	-38.0197	229.342	1358.006	-56.4802	202.7663	1341.7732	-359.4577	237.5705	1376.7262	-373.2785	225.6741	1397.5309	-326.3227	406.3268	1134.8225	-199.3837	175.1599	1189.9004	-240.2343	292.6189	1141.9091	-12.7698	232.3912	997.2403	-44.1736	243.7226	1008.4283	20.8586	301.4158	855.5045	47.1953	353.5462	793.8768	30.5555	305.7769	785.334	47.3071	377.7868	712.4002	45.2628	328.7599	707.5714	58.4185	316.3696	1476.5292	-352.5746	408.0555	1564.9661	-430.4902	362.4811	1590.368	-438.5711	385.0612	1749.6469	-439.5248	395.5823	1822.7459	-422.121	431.5003	1818.1219	-446.0776	399.4596	1897.401	-429.8139	438.4666	1894.3372	-448.2765	372.7838	907.2079	-78.7927	185.5859	928.6798	-164.872	375.2664	894.5721	-337.2266	187.3095	922.5205	-267.1112	291.6023	970.9152	-52.9247	290.6887	941.1101	-377.115	139.372	1291.0537	-334.9289	167.4557	1199.5738	-367.5983	198.3852	1353.3016	-443.6238
54	0.265	195.8228	1368.387	-235.3568	332.2226	1325.3685	-205.2026	178.5032	1318.0715	-78.4337	208.6215	1321.6934	-37.9776	229.4232	1357.9476	-56.5361	202.7608	1341.7832	-359.4614	237.5715	1376.7096	-373.2797	225.6622	1397.5477	-326.3273	406.3261	1134.8351	-199.4045	175.1704	1189.9006	-240.2174	292.6153	1141.9304	-12.7561	232.4023	997.2625	-44.1817	243.7333	1008.4259	20.8597	301.4398	855.5077	47.1805	353.58	793.8494	30.5151	305.7494	785.3428	47.2447	377.8358	712.405	45.1876	328.9247	707.4492	58.3113	316.2993	1476.5702	-352.6268	408.0476	1564.9865	-430.4896	362.4799	1590.3843	-438.5319	385.0997	1749.6473	-439.5347	395.5899	1822.7459	-422.1082	431.7187	1818.2645	-446.2138	399.4756	1897.3983	-429.7733	438.489	1894.3306	-448.2701	372.8301	907.2167	-78.7877	185.6203	928.6685	-164.8715	375.271	894.5768	-337.2164	187.3073	922.5273	-267.0678	291.6206	970.8997	-52.9043	290.6489	941.106	-377.1104	139.3818	1291.0563	-334.9246	167.4795	1199.5821	-367.6201	198.3353	1353.3149	-443.5865
55	0.27	195.809	1368.3846	-235.3676	332.2515	1325.3408	-205.203	178.5238	1318.0684	-78.4216	208.6091	1321.7128	-37.9471	229.4061	1357.9907	-56.5081	202.7488	1341.7817	-359.4413	237.5679	1376.7218	-373.2736	225.6547	1397.5395	-326.3223	406.3568	1134.8005	-199.3759	175.1569	1189.9099	-240.1919	292.6485	1141.9059	-12.7546	232.414	997.2718	-44.1599	243.7534	1008.3788	20.808	301.4769	855.5005	47.1319	353.612	793.8558	30.4913	305.8509	785.3007	47.2307	377.8649	712.4025	45.1638	328.8601	707.5274	58.2884	316.3394	1476.5223	-352.6399	408.0656	1564.9147	-430.4691	362.4875	1590.3555	-438.5435	385.093	1749.6365	-439.5019	395.6091	1822.7554	-422.0763	431.5472	1818.1222	-445.9964	399.4762	1897.3938	-429.7527	438.5229	1894.329	-448.2308	372.8748	907.2192	-78.7848	185.6269	928.672	-164.8512	375.2819	894.5478	-337.19	187.3207	922.548	-267.0421	291.6326	970.8634	-52.8831	290.6759	941.0731	-377.0816	139.3606	1291.0714	-334.8884	167.4494	1199.5956	-367.5814	198.3296	1353.3223	-443.5873
56	0.275	195.7988	1368.3744	-235.3414	332.2533	1325.3492	-205.188	178.5201	1318.08	-78.3984	208.6356	1321.6877	-37.9158	229.3731	1357.9515	-56.3889	202.7155	1341.8164	-359.4029	237.5561	1376.7358	-373.2732	225.6602	1397.5225	-326.3103	406.3629	1134.7994	-199.3728	175.1603	1189.8862	-240.1714	292.6957	1141.9026	-12.7938	232.4311	997.2811	-44.1628	243.7755	1008.415	20.8687	301.5075	855.4991	47.1304	353.6966	793.8217	30.4209	305.878	785.3376	47.208	377.8987	712.4125	45.1365	329.0272	707.4404	58.2354	316.3778	1476.5137	-352.56	408.0961	1564.9266	-430.4575	362.5391	1590.3372	-438.5528	385.0938	1749.6338	-439.4859	395.651	1822.7445	-422.0669	431.758	1818.2188	-446.1608	399.5149	1897.3685	-429.7466	438.5377	1894.3038	-448.2078	372.9111	907.2202	-78.746	185.6526	928.6877	-164.8267	375.331	894.5707	-337.1443	187.3373	922.523	-267.0345	291.65	970.8896	-52.8908	290.638	941.1476	-377.0548	139.3656	1291.0796	-334.8984	167.3994	1199.5789	-367.5459	198.3175	1353.3173	-443.5601
57	0.28	195.7998	1368.386	-235.3434	332.2466	1325.3461	-205.1991	178.5231	1318.0884	-78.3866	208.7	1321.6529	-37.9364	229.3724	1357.9972	-56.4071	202.7502	1341.7666	-359.4473	237.5619	1376.7462	-373.2711	225.657	1397.5465	-326.3246	406.3322	1134.8292	-199.37	175.1679	1189.8943	-240.1495	292.6974	1141.9094	-12.7567	232.4258	997.2752	-44.1506	243.8214	1008.4013	20.8145	301.5477	855.4766	47.0971	353.7562	793.8213	30.3927	305.9186	785.3024	47.2155	377.9987	712.3453	45.0378	329.0515	707.4994	58.2292	316.4025	1476.4354	-352.5835	408.1099	1564.8693	-430.4792	362.5231	1590.3402	-438.5442	385.1358	1749.619	-439.4854	395.6469	1822.7355	-422.0403	431.8006	1818.1903	-446.1617	399.5543	1897.3788	-429.6959	438.5798	1894.2985	-448.1863	372.8598	907.1816	-78.7233	185.6453	928.6741	-164.8014	375.3392	894.5422	-337.1574	187.3341	922.5609	-267.0122	291.3679	970.6749	-52.85	290.6842	941.061	-377.0555	139.3747	1291.0478	-334.8903	167.3754	1199.602	-367.5134	198.2875	1353.3293	-443.5366
58	0.285	195.7733	1368.3829	-235.3253	332.2233	1325.3245	-205.2027	178.5321	1318.0996	-78.3633	208.6466	1321.7221	-37.9114	229.4187	1357.9812	-56.4763	202.6961	1341.8325	-359.3972	237.5452	1376.7213	-373.2614	225.6507	1397.5432	-326.3233	406.3437	1134.7988	-199.3753	175.1599	1189.8936	-240.1368	292.7576	1141.8733	-12.7786	232.4428	997.2901	-44.1215	243.8393	1008.4075	20.8307	301.5689	855.4803	47.1011	353.8577	793.7332	30.3374	305.9759	785.2781	47.1595	378.0172	712.365	45.0534	329.2007	707.4006	58.1299	316.3943	1476.4969	-352.6008	408.1227	1564.8326	-430.4716	362.5331	1590.343	-438.5375	385.1302	1749.6072	-439.4542	395.6575	1822.7388	-422.0257	431.8282	1818.1566	-446.1002	399.5741	1897.3599	-429.6698	438.59	1894.2677	-448.1506	372.8206	907.1851	-78.7009	185.6748	928.6693	-164.7717	375.3349	894.5606	-337.1263	187.356	922.5425	-266.998	291.4306	970.6837	-52.807	290.6728	941.1132	-377.0331	139.3279	1291.0608	-334.8383	167.3665	1199.5918	-367.53	198.2707	1353.3347	-443.5264
